<?xml version="1.0" encoding="utf-8"?>
<svg xmlns="http://www.w3.org/2000/svg" xmlns:xlink="http://www.w3.org/1999/xlink" width="600" height="400" viewBox="0 0 2400 1600">
<defs>
  <clipPath id="clip900">
    <rect x="0" y="0" width="2400" height="1600"/>
  </clipPath>
</defs>
<path clip-path="url(#clip900)" d="M0 1600 L2400 1600 L2400 0 L0 0  Z" fill="#ffffff" fill-rule="evenodd" fill-opacity="1"/>
<defs>
  <clipPath id="clip901">
    <rect x="480" y="0" width="1681" height="1600"/>
  </clipPath>
</defs>
<path clip-path="url(#clip900)" d="M194.422 1486.45 L2352.76 1486.45 L2352.76 47.2441 L194.422 47.2441  Z" fill="#ffffff" fill-rule="evenodd" fill-opacity="1"/>
<defs>
  <clipPath id="clip902">
    <rect x="194" y="47" width="2159" height="1440"/>
  </clipPath>
</defs>
<polyline clip-path="url(#clip902)" style="stroke:#000000; stroke-linecap:round; stroke-linejoin:round; stroke-width:2; stroke-opacity:0.1; fill:none" points="194.422,1486.45 194.422,47.2441 "/>
<polyline clip-path="url(#clip902)" style="stroke:#000000; stroke-linecap:round; stroke-linejoin:round; stroke-width:2; stroke-opacity:0.1; fill:none" points="913.867,1486.45 913.867,47.2441 "/>
<polyline clip-path="url(#clip902)" style="stroke:#000000; stroke-linecap:round; stroke-linejoin:round; stroke-width:2; stroke-opacity:0.1; fill:none" points="1633.31,1486.45 1633.31,47.2441 "/>
<polyline clip-path="url(#clip902)" style="stroke:#000000; stroke-linecap:round; stroke-linejoin:round; stroke-width:2; stroke-opacity:0.1; fill:none" points="2352.76,1486.45 2352.76,47.2441 "/>
<polyline clip-path="url(#clip902)" style="stroke:#000000; stroke-linecap:round; stroke-linejoin:round; stroke-width:2; stroke-opacity:0.1; fill:none" points="194.422,1470.96 2352.76,1470.96 "/>
<polyline clip-path="url(#clip902)" style="stroke:#000000; stroke-linecap:round; stroke-linejoin:round; stroke-width:2; stroke-opacity:0.1; fill:none" points="194.422,1125.21 2352.76,1125.21 "/>
<polyline clip-path="url(#clip902)" style="stroke:#000000; stroke-linecap:round; stroke-linejoin:round; stroke-width:2; stroke-opacity:0.1; fill:none" points="194.422,779.467 2352.76,779.467 "/>
<polyline clip-path="url(#clip902)" style="stroke:#000000; stroke-linecap:round; stroke-linejoin:round; stroke-width:2; stroke-opacity:0.1; fill:none" points="194.422,433.722 2352.76,433.722 "/>
<polyline clip-path="url(#clip902)" style="stroke:#000000; stroke-linecap:round; stroke-linejoin:round; stroke-width:2; stroke-opacity:0.1; fill:none" points="194.422,87.9763 2352.76,87.9763 "/>
<polyline clip-path="url(#clip900)" style="stroke:#000000; stroke-linecap:round; stroke-linejoin:round; stroke-width:4; stroke-opacity:1; fill:none" points="194.422,1486.45 2352.76,1486.45 "/>
<polyline clip-path="url(#clip900)" style="stroke:#000000; stroke-linecap:round; stroke-linejoin:round; stroke-width:4; stroke-opacity:1; fill:none" points="194.422,1486.45 194.422,1467.55 "/>
<polyline clip-path="url(#clip900)" style="stroke:#000000; stroke-linecap:round; stroke-linejoin:round; stroke-width:4; stroke-opacity:1; fill:none" points="913.867,1486.45 913.867,1467.55 "/>
<polyline clip-path="url(#clip900)" style="stroke:#000000; stroke-linecap:round; stroke-linejoin:round; stroke-width:4; stroke-opacity:1; fill:none" points="1633.31,1486.45 1633.31,1467.55 "/>
<polyline clip-path="url(#clip900)" style="stroke:#000000; stroke-linecap:round; stroke-linejoin:round; stroke-width:4; stroke-opacity:1; fill:none" points="2352.76,1486.45 2352.76,1467.55 "/>
<path clip-path="url(#clip900)" d="M194.422 1517.37 Q190.811 1517.37 188.982 1520.93 Q187.177 1524.47 187.177 1531.6 Q187.177 1538.71 188.982 1542.27 Q190.811 1545.82 194.422 1545.82 Q198.056 1545.82 199.862 1542.27 Q201.691 1538.71 201.691 1531.6 Q201.691 1524.47 199.862 1520.93 Q198.056 1517.37 194.422 1517.37 M194.422 1513.66 Q200.232 1513.66 203.288 1518.27 Q206.366 1522.85 206.366 1531.6 Q206.366 1540.33 203.288 1544.94 Q200.232 1549.52 194.422 1549.52 Q188.612 1549.52 185.533 1544.94 Q182.478 1540.33 182.478 1531.6 Q182.478 1522.85 185.533 1518.27 Q188.612 1513.66 194.422 1513.66 Z" fill="#000000" fill-rule="nonzero" fill-opacity="1" /><path clip-path="url(#clip900)" d="M904.249 1544.91 L911.888 1544.91 L911.888 1518.55 L903.577 1520.21 L903.577 1515.95 L911.841 1514.29 L916.517 1514.29 L916.517 1544.91 L924.156 1544.91 L924.156 1548.85 L904.249 1548.85 L904.249 1544.91 Z" fill="#000000" fill-rule="nonzero" fill-opacity="1" /><path clip-path="url(#clip900)" d="M1627.96 1544.91 L1644.28 1544.91 L1644.28 1548.85 L1622.34 1548.85 L1622.34 1544.91 Q1625 1542.16 1629.58 1537.53 Q1634.19 1532.88 1635.37 1531.53 Q1637.62 1529.01 1638.5 1527.27 Q1639.4 1525.51 1639.4 1523.82 Q1639.4 1521.07 1637.45 1519.33 Q1635.53 1517.6 1632.43 1517.6 Q1630.23 1517.6 1627.78 1518.36 Q1625.35 1519.13 1622.57 1520.68 L1622.57 1515.95 Q1625.39 1514.82 1627.85 1514.24 Q1630.3 1513.66 1632.34 1513.66 Q1637.71 1513.66 1640.9 1516.35 Q1644.1 1519.03 1644.1 1523.52 Q1644.1 1525.65 1643.29 1527.57 Q1642.5 1529.47 1640.39 1532.07 Q1639.82 1532.74 1636.71 1535.95 Q1633.61 1539.15 1627.96 1544.91 Z" fill="#000000" fill-rule="nonzero" fill-opacity="1" /><path clip-path="url(#clip900)" d="M2357 1530.21 Q2360.36 1530.93 2362.24 1533.2 Q2364.13 1535.47 2364.13 1538.8 Q2364.13 1543.92 2360.61 1546.72 Q2357.1 1549.52 2350.61 1549.52 Q2348.44 1549.52 2346.12 1549.08 Q2343.83 1548.66 2341.38 1547.81 L2341.38 1543.29 Q2343.32 1544.43 2345.64 1545.01 Q2347.95 1545.58 2350.48 1545.58 Q2354.87 1545.58 2357.17 1543.85 Q2359.48 1542.11 2359.48 1538.8 Q2359.48 1535.75 2357.33 1534.03 Q2355.2 1532.3 2351.38 1532.3 L2347.35 1532.3 L2347.35 1528.45 L2351.56 1528.45 Q2355.01 1528.45 2356.84 1527.09 Q2358.67 1525.7 2358.67 1523.11 Q2358.67 1520.45 2356.77 1519.03 Q2354.9 1517.6 2351.38 1517.6 Q2349.46 1517.6 2347.26 1518.01 Q2345.06 1518.43 2342.42 1519.31 L2342.42 1515.14 Q2345.08 1514.4 2347.4 1514.03 Q2349.74 1513.66 2351.8 1513.66 Q2357.12 1513.66 2360.22 1516.09 Q2363.32 1518.5 2363.32 1522.62 Q2363.32 1525.49 2361.68 1527.48 Q2360.04 1529.45 2357 1530.21 Z" fill="#000000" fill-rule="nonzero" fill-opacity="1" /><polyline clip-path="url(#clip900)" style="stroke:#000000; stroke-linecap:round; stroke-linejoin:round; stroke-width:4; stroke-opacity:1; fill:none" points="194.422,1486.45 194.422,47.2441 "/>
<polyline clip-path="url(#clip900)" style="stroke:#000000; stroke-linecap:round; stroke-linejoin:round; stroke-width:4; stroke-opacity:1; fill:none" points="194.422,1470.96 213.32,1470.96 "/>
<polyline clip-path="url(#clip900)" style="stroke:#000000; stroke-linecap:round; stroke-linejoin:round; stroke-width:4; stroke-opacity:1; fill:none" points="194.422,1125.21 213.32,1125.21 "/>
<polyline clip-path="url(#clip900)" style="stroke:#000000; stroke-linecap:round; stroke-linejoin:round; stroke-width:4; stroke-opacity:1; fill:none" points="194.422,779.467 213.32,779.467 "/>
<polyline clip-path="url(#clip900)" style="stroke:#000000; stroke-linecap:round; stroke-linejoin:round; stroke-width:4; stroke-opacity:1; fill:none" points="194.422,433.722 213.32,433.722 "/>
<polyline clip-path="url(#clip900)" style="stroke:#000000; stroke-linecap:round; stroke-linejoin:round; stroke-width:4; stroke-opacity:1; fill:none" points="194.422,87.9763 213.32,87.9763 "/>
<path clip-path="url(#clip900)" d="M51.5708 1471.41 L81.2466 1471.41 L81.2466 1475.34 L51.5708 1475.34 L51.5708 1471.41 Z" fill="#000000" fill-rule="nonzero" fill-opacity="1" /><path clip-path="url(#clip900)" d="M101.339 1456.76 Q97.728 1456.76 95.8993 1460.32 Q94.0937 1463.86 94.0937 1470.99 Q94.0937 1478.1 95.8993 1481.66 Q97.728 1485.21 101.339 1485.21 Q104.973 1485.21 106.779 1481.66 Q108.608 1478.1 108.608 1470.99 Q108.608 1463.86 106.779 1460.32 Q104.973 1456.76 101.339 1456.76 M101.339 1453.05 Q107.149 1453.05 110.205 1457.66 Q113.283 1462.24 113.283 1470.99 Q113.283 1479.72 110.205 1484.33 Q107.149 1488.91 101.339 1488.91 Q95.5289 1488.91 92.4502 1484.33 Q89.3947 1479.72 89.3947 1470.99 Q89.3947 1462.24 92.4502 1457.66 Q95.5289 1453.05 101.339 1453.05 Z" fill="#000000" fill-rule="nonzero" fill-opacity="1" /><path clip-path="url(#clip900)" d="M121.501 1482.36 L126.385 1482.36 L126.385 1488.24 L121.501 1488.24 L121.501 1482.36 Z" fill="#000000" fill-rule="nonzero" fill-opacity="1" /><path clip-path="url(#clip900)" d="M146.57 1471.83 Q143.237 1471.83 141.316 1473.61 Q139.418 1475.39 139.418 1478.52 Q139.418 1481.64 141.316 1483.42 Q143.237 1485.21 146.57 1485.21 Q149.904 1485.21 151.825 1483.42 Q153.746 1481.62 153.746 1478.52 Q153.746 1475.39 151.825 1473.61 Q149.927 1471.83 146.57 1471.83 M141.894 1469.84 Q138.885 1469.09 137.195 1467.03 Q135.529 1464.97 135.529 1462.01 Q135.529 1457.87 138.469 1455.46 Q141.431 1453.05 146.57 1453.05 Q151.732 1453.05 154.672 1455.46 Q157.612 1457.87 157.612 1462.01 Q157.612 1464.97 155.922 1467.03 Q154.255 1469.09 151.269 1469.84 Q154.649 1470.62 156.524 1472.91 Q158.422 1475.21 158.422 1478.52 Q158.422 1483.54 155.343 1486.22 Q152.288 1488.91 146.57 1488.91 Q140.853 1488.91 137.774 1486.22 Q134.719 1483.54 134.719 1478.52 Q134.719 1475.21 136.617 1472.91 Q138.515 1470.62 141.894 1469.84 M140.181 1462.45 Q140.181 1465.14 141.848 1466.64 Q143.538 1468.15 146.57 1468.15 Q149.58 1468.15 151.269 1466.64 Q152.982 1465.14 152.982 1462.45 Q152.982 1459.77 151.269 1458.26 Q149.58 1456.76 146.57 1456.76 Q143.538 1456.76 141.848 1458.26 Q140.181 1459.77 140.181 1462.45 Z" fill="#000000" fill-rule="nonzero" fill-opacity="1" /><path clip-path="url(#clip900)" d="M51.3162 1125.66 L80.992 1125.66 L80.992 1129.6 L51.3162 1129.6 L51.3162 1125.66 Z" fill="#000000" fill-rule="nonzero" fill-opacity="1" /><path clip-path="url(#clip900)" d="M101.084 1111.01 Q97.4734 1111.01 95.6447 1114.58 Q93.8391 1118.12 93.8391 1125.25 Q93.8391 1132.35 95.6447 1135.92 Q97.4734 1139.46 101.084 1139.46 Q104.719 1139.46 106.524 1135.92 Q108.353 1132.35 108.353 1125.25 Q108.353 1118.12 106.524 1114.58 Q104.719 1111.01 101.084 1111.01 M101.084 1107.31 Q106.895 1107.31 109.95 1111.91 Q113.029 1116.5 113.029 1125.25 Q113.029 1133.97 109.95 1138.58 Q106.895 1143.16 101.084 1143.16 Q95.2743 1143.16 92.1956 1138.58 Q89.1401 1133.97 89.1401 1125.25 Q89.1401 1116.5 92.1956 1111.91 Q95.2743 1107.31 101.084 1107.31 Z" fill="#000000" fill-rule="nonzero" fill-opacity="1" /><path clip-path="url(#clip900)" d="M121.246 1136.61 L126.131 1136.61 L126.131 1142.49 L121.246 1142.49 L121.246 1136.61 Z" fill="#000000" fill-rule="nonzero" fill-opacity="1" /><path clip-path="url(#clip900)" d="M146.894 1123.35 Q143.746 1123.35 141.894 1125.5 Q140.066 1127.65 140.066 1131.4 Q140.066 1135.13 141.894 1137.31 Q143.746 1139.46 146.894 1139.46 Q150.043 1139.46 151.871 1137.31 Q153.723 1135.13 153.723 1131.4 Q153.723 1127.65 151.871 1125.5 Q150.043 1123.35 146.894 1123.35 M156.177 1108.7 L156.177 1112.96 Q154.417 1112.12 152.612 1111.68 Q150.83 1111.24 149.07 1111.24 Q144.441 1111.24 141.987 1114.37 Q139.556 1117.49 139.209 1123.81 Q140.575 1121.8 142.635 1120.73 Q144.695 1119.65 147.172 1119.65 Q152.38 1119.65 155.39 1122.82 Q158.422 1125.97 158.422 1131.4 Q158.422 1136.73 155.274 1139.95 Q152.126 1143.16 146.894 1143.16 Q140.899 1143.16 137.728 1138.58 Q134.556 1133.97 134.556 1125.25 Q134.556 1117.05 138.445 1112.19 Q142.334 1107.31 148.885 1107.31 Q150.644 1107.31 152.427 1107.66 Q154.232 1108 156.177 1108.7 Z" fill="#000000" fill-rule="nonzero" fill-opacity="1" /><path clip-path="url(#clip900)" d="M50.9921 779.919 L80.6679 779.919 L80.6679 783.854 L50.9921 783.854 L50.9921 779.919 Z" fill="#000000" fill-rule="nonzero" fill-opacity="1" /><path clip-path="url(#clip900)" d="M100.76 765.266 Q97.1493 765.266 95.3206 768.831 Q93.515 772.372 93.515 779.502 Q93.515 786.608 95.3206 790.173 Q97.1493 793.715 100.76 793.715 Q104.395 793.715 106.2 790.173 Q108.029 786.608 108.029 779.502 Q108.029 772.372 106.2 768.831 Q104.395 765.266 100.76 765.266 M100.76 761.562 Q106.571 761.562 109.626 766.169 Q112.705 770.752 112.705 779.502 Q112.705 788.229 109.626 792.835 Q106.571 797.419 100.76 797.419 Q94.9502 797.419 91.8715 792.835 Q88.816 788.229 88.816 779.502 Q88.816 770.752 91.8715 766.169 Q94.9502 761.562 100.76 761.562 Z" fill="#000000" fill-rule="nonzero" fill-opacity="1" /><path clip-path="url(#clip900)" d="M120.922 790.868 L125.807 790.868 L125.807 796.747 L120.922 796.747 L120.922 790.868 Z" fill="#000000" fill-rule="nonzero" fill-opacity="1" /><path clip-path="url(#clip900)" d="M148.839 766.261 L137.033 784.71 L148.839 784.71 L148.839 766.261 M147.612 762.187 L153.492 762.187 L153.492 784.71 L158.422 784.71 L158.422 788.599 L153.492 788.599 L153.492 796.747 L148.839 796.747 L148.839 788.599 L133.237 788.599 L133.237 784.085 L147.612 762.187 Z" fill="#000000" fill-rule="nonzero" fill-opacity="1" /><path clip-path="url(#clip900)" d="M53.0754 434.173 L82.7512 434.173 L82.7512 438.108 L53.0754 438.108 L53.0754 434.173 Z" fill="#000000" fill-rule="nonzero" fill-opacity="1" /><path clip-path="url(#clip900)" d="M102.844 419.52 Q99.2326 419.52 97.4039 423.085 Q95.5984 426.627 95.5984 433.757 Q95.5984 440.863 97.4039 444.428 Q99.2326 447.969 102.844 447.969 Q106.478 447.969 108.283 444.428 Q110.112 440.863 110.112 433.757 Q110.112 426.627 108.283 423.085 Q106.478 419.52 102.844 419.52 M102.844 415.817 Q108.654 415.817 111.709 420.423 Q114.788 425.007 114.788 433.757 Q114.788 442.483 111.709 447.09 Q108.654 451.673 102.844 451.673 Q97.0335 451.673 93.9549 447.09 Q90.8993 442.483 90.8993 433.757 Q90.8993 425.007 93.9549 420.423 Q97.0335 415.817 102.844 415.817 Z" fill="#000000" fill-rule="nonzero" fill-opacity="1" /><path clip-path="url(#clip900)" d="M123.006 445.122 L127.89 445.122 L127.89 451.002 L123.006 451.002 L123.006 445.122 Z" fill="#000000" fill-rule="nonzero" fill-opacity="1" /><path clip-path="url(#clip900)" d="M142.103 447.067 L158.422 447.067 L158.422 451.002 L136.478 451.002 L136.478 447.067 Q139.14 444.312 143.723 439.682 Q148.33 435.03 149.51 433.687 Q151.755 431.164 152.635 429.428 Q153.538 427.669 153.538 425.979 Q153.538 423.224 151.593 421.488 Q149.672 419.752 146.57 419.752 Q144.371 419.752 141.918 420.516 Q139.487 421.28 136.709 422.831 L136.709 418.108 Q139.533 416.974 141.987 416.395 Q144.441 415.817 146.478 415.817 Q151.848 415.817 155.042 418.502 Q158.237 421.187 158.237 425.678 Q158.237 427.807 157.427 429.729 Q156.64 431.627 154.533 434.219 Q153.955 434.891 150.853 438.108 Q147.751 441.303 142.103 447.067 Z" fill="#000000" fill-rule="nonzero" fill-opacity="1" /><path clip-path="url(#clip900)" d="M101.246 73.775 Q97.6354 73.775 95.8067 77.3398 Q94.0012 80.8814 94.0012 88.011 Q94.0012 95.1174 95.8067 98.6822 Q97.6354 102.224 101.246 102.224 Q104.881 102.224 106.686 98.6822 Q108.515 95.1174 108.515 88.011 Q108.515 80.8814 106.686 77.3398 Q104.881 73.775 101.246 73.775 M101.246 70.0713 Q107.057 70.0713 110.112 74.6777 Q113.191 79.261 113.191 88.011 Q113.191 96.7378 110.112 101.344 Q107.057 105.928 101.246 105.928 Q95.4363 105.928 92.3576 101.344 Q89.3021 96.7378 89.3021 88.011 Q89.3021 79.261 92.3576 74.6777 Q95.4363 70.0713 101.246 70.0713 Z" fill="#000000" fill-rule="nonzero" fill-opacity="1" /><path clip-path="url(#clip900)" d="M121.408 99.3767 L126.293 99.3767 L126.293 105.256 L121.408 105.256 L121.408 99.3767 Z" fill="#000000" fill-rule="nonzero" fill-opacity="1" /><path clip-path="url(#clip900)" d="M146.478 73.775 Q142.867 73.775 141.038 77.3398 Q139.232 80.8814 139.232 88.011 Q139.232 95.1174 141.038 98.6822 Q142.867 102.224 146.478 102.224 Q150.112 102.224 151.918 98.6822 Q153.746 95.1174 153.746 88.011 Q153.746 80.8814 151.918 77.3398 Q150.112 73.775 146.478 73.775 M146.478 70.0713 Q152.288 70.0713 155.343 74.6777 Q158.422 79.261 158.422 88.011 Q158.422 96.7378 155.343 101.344 Q152.288 105.928 146.478 105.928 Q140.668 105.928 137.589 101.344 Q134.533 96.7378 134.533 88.011 Q134.533 79.261 137.589 74.6777 Q140.668 70.0713 146.478 70.0713 Z" fill="#000000" fill-rule="nonzero" fill-opacity="1" /><polyline clip-path="url(#clip902)" style="stroke:#009af9; stroke-linecap:round; stroke-linejoin:round; stroke-width:4; stroke-opacity:1; fill:none" points="194.422,87.9763 201.617,87.9763 208.811,87.9763 216.005,87.9763 223.2,87.9763 230.394,87.9763 237.589,87.9763 244.783,87.9763 251.978,87.9763 259.172,87.9763 266.367,87.9763 273.561,87.9763 280.755,87.9763 287.95,87.9763 295.144,87.9763 302.339,87.9763 309.533,87.9763 316.728,87.9763 323.922,87.9763 331.117,87.9763 338.311,87.9763 345.505,87.9763 352.7,87.9763 359.894,87.9763 367.089,87.9763 374.283,87.9763 381.478,87.9763 388.672,87.9763 395.867,87.9763 403.061,87.9763 410.255,87.9763 417.45,87.9763 424.644,87.9763 431.839,87.9763 439.033,87.9763 446.228,87.9763 453.422,87.9763 460.617,87.9763 467.811,87.9764 475.005,87.9764 482.2,87.9764 489.394,87.9764 496.589,87.9765 503.783,87.9765 510.978,87.9766 518.172,87.9766 525.367,87.9767 532.561,87.9768 539.756,87.9769 546.95,87.9771 554.144,87.9773 561.339,87.9776 568.533,87.9779 575.728,87.9783 582.922,87.9788 590.117,87.9794 597.311,87.9801 604.506,87.9811 611.7,87.9823 618.894,87.9837 626.089,87.9856 633.283,87.9879 640.478,87.9907 647.672,87.9943 654.867,87.9987 662.061,88.0042 669.256,88.0111 676.45,88.0197 683.644,88.0303 690.839,88.0436 698.033,88.0602 705.228,88.0808 712.422,88.1065 719.617,88.1385 726.811,88.1784 734.006,88.228 741.2,88.2898 748.394,88.3667 755.589,88.4623 762.783,88.5814 769.978,88.7294 777.172,88.9133 784.367,89.1417 791.561,89.4251 798.756,89.7765 805.95,90.2116 813.144,90.7494 820.339,91.4131 827.533,92.2303 834.728,93.2337 841.922,94.4615 849.117,95.9581 856.311,97.7736 863.506,99.9635 870.7,102.588 877.894,105.709 885.089,109.39 892.283,113.689 899.478,118.658 906.672,124.338 913.867,130.754 921.061,137.915 928.256,145.813 935.45,154.421 942.644,163.7 949.839,173.596 957.033,184.052 964.228,195.005 971.422,206.393 978.617,218.155 985.811,230.235 993.006,242.585 1000.2,255.159 1007.39,267.919 1014.59,280.833 1021.78,293.872 1028.98,307.015 1036.17,320.241 1043.37,333.535 1050.56,346.884 1057.76,360.277 1064.95,373.707 1072.14,387.165 1079.34,400.647 1086.53,414.147 1093.73,427.663 1100.92,441.191 1108.12,454.728 1115.31,468.274 1122.51,481.825 1129.7,495.382 1136.89,508.943 1144.09,522.507 1151.28,536.074 1158.48,549.642 1165.67,563.213 1172.87,576.785 1180.06,590.358 1187.26,603.932 1194.45,617.506 1201.64,631.081 1208.84,644.657 1216.03,658.233 1223.23,671.809 1230.42,685.385 1237.62,698.962 1244.81,712.538 1252.01,726.115 1259.2,739.692 1266.39,753.269 1273.59,766.846 1280.78,780.423 1287.98,794 1295.17,807.577 1302.37,821.154 1309.56,834.73 1316.76,848.307 1323.95,861.883 1331.14,875.459 1338.34,889.035 1345.53,902.611 1352.73,916.186 1359.92,929.76 1367.12,943.334 1374.31,956.907 1381.51,970.479 1388.7,984.05 1395.89,997.618 1403.09,1011.19 1410.28,1024.75 1417.48,1038.31 1424.67,1051.87 1431.87,1065.42 1439.06,1078.96 1446.26,1092.5 1453.45,1106.03 1460.64,1119.54 1467.84,1133.05 1475.03,1146.53 1482.23,1159.99 1489.42,1173.41 1496.62,1186.81 1503.81,1200.16 1511.01,1213.45 1518.2,1226.68 1525.39,1239.82 1532.59,1252.86 1539.78,1265.77 1546.98,1278.53 1554.17,1291.11 1561.37,1303.46 1568.56,1315.54 1575.76,1327.3 1582.95,1338.69 1590.14,1349.64 1597.34,1360.1 1604.53,1369.99 1611.73,1379.27 1618.92,1387.88 1626.12,1395.78 1633.31,1402.94 1640.51,1409.35 1647.7,1415.03 1654.89,1420 1662.09,1424.3 1669.28,1427.98 1676.48,1431.1 1683.67,1433.73 1690.87,1435.92 1698.06,1437.73 1705.26,1439.23 1712.45,1440.46 1719.64,1441.46 1726.84,1442.28 1734.03,1442.94 1741.23,1443.48 1748.42,1443.92 1755.62,1444.27 1762.81,1444.55 1770.01,1444.78 1777.2,1444.96 1784.39,1445.11 1791.59,1445.23 1798.78,1445.33 1805.98,1445.4 1813.17,1445.46 1820.37,1445.51 1827.56,1445.55 1834.76,1445.59 1841.95,1445.61 1849.14,1445.63 1856.34,1445.65 1863.53,1445.66 1870.73,1445.67 1877.92,1445.68 1885.12,1445.69 1892.31,1445.69 1899.51,1445.7 1906.7,1445.7 1913.89,1445.7 1921.09,1445.71 1928.28,1445.71 1935.48,1445.71 1942.67,1445.71 1949.87,1445.71 1957.06,1445.71 1964.26,1445.71 1971.45,1445.71 1978.64,1445.71 1985.84,1445.71 1993.03,1445.71 2000.23,1445.71 2007.42,1445.72 2014.62,1445.72 2021.81,1445.72 2029.01,1445.72 2036.2,1445.72 2043.39,1445.72 2050.59,1445.72 2057.78,1445.72 2064.98,1445.72 2072.17,1445.72 2079.37,1445.72 2086.56,1445.72 2093.76,1445.72 2100.95,1445.72 2108.14,1445.72 2115.34,1445.72 2122.53,1445.72 2129.73,1445.72 2136.92,1445.72 2144.12,1445.72 2151.31,1445.72 2158.51,1445.72 2165.7,1445.72 2172.89,1445.72 2180.09,1445.72 2187.28,1445.72 2194.48,1445.72 2201.67,1445.72 2208.87,1445.72 2216.06,1445.72 2223.26,1445.72 2230.45,1445.72 2237.64,1445.72 2244.84,1445.72 2252.03,1445.72 2259.23,1445.72 2266.42,1445.72 2273.62,1445.72 2280.81,1445.72 2288.01,1445.72 2295.2,1445.72 2302.39,1445.72 2309.59,1445.72 2316.78,1445.72 2323.98,1445.72 2331.17,1445.72 2338.37,1445.72 2345.56,1445.72 2352.76,1445.72 "/>
<path clip-path="url(#clip900)" d="M2039.84 198.898 L2280.81 198.898 L2280.81 95.2176 L2039.84 95.2176  Z" fill="#ffffff" fill-rule="evenodd" fill-opacity="1"/>
<polyline clip-path="url(#clip900)" style="stroke:#000000; stroke-linecap:round; stroke-linejoin:round; stroke-width:4; stroke-opacity:1; fill:none" points="2039.84,198.898 2280.81,198.898 2280.81,95.2176 2039.84,95.2176 2039.84,198.898 "/>
<polyline clip-path="url(#clip900)" style="stroke:#009af9; stroke-linecap:round; stroke-linejoin:round; stroke-width:4; stroke-opacity:1; fill:none" points="2063.82,147.058 2207.71,147.058 "/>
<path clip-path="url(#clip900)" d="M2256.34 138.412 L2246.97 151.027 L2256.83 164.338 L2251.81 164.338 L2244.26 154.152 L2236.71 164.338 L2231.69 164.338 L2241.76 150.773 L2232.55 138.412 L2237.57 138.412 L2244.45 147.648 L2251.32 138.412 L2256.34 138.412 Z" fill="#000000" fill-rule="nonzero" fill-opacity="1" /></svg>
